<?xml version="1.0" encoding="utf-8"?>
<!-- Generator: Adobe Illustrator 18.1.1, SVG Export Plug-In . SVG Version: 6.00 Build 0)  -->
<svg version="1.1" id="图层_1" xmlns="http://www.w3.org/2000/svg" xmlns:xlink="http://www.w3.org/1999/xlink" x="0px" y="0px"
	 viewBox="0 0 155.9 178.4" enable-background="new 0 0 155.9 178.4" xml:space="preserve">
<rect x="-61.7" y="-135.8" display="none" fill="#FFFFFF" stroke="#000000" stroke-miterlimit="10" width="425.2" height="566.9"/>
<rect x="92.1" y="-118.9" display="none" fill="#FFFFFF" stroke="#000000" stroke-miterlimit="10" width="117.5" height="344.9"/>
<path fill-rule="evenodd" clip-rule="evenodd" fill="#FFFFFF" d="M87,7.7c-3.2-6.3,3.9-9.1,7.9-6.9C94.7,7.2,88.8,4.2,87,7.7z
	 M78.5,7.9c1.2-3,6.5-4.6,7.5,0.4C83.5,7.1,81.5,11.5,78.5,7.9z M80.8,40.8c-1.7,0-3.1-1.4-3.1-3.1c0-1.7,1.4-3.1,3.1-3.1
	c1.7,0,3.1,1.4,3.1,3.1c0,0.3-0.1,0.7-0.2,1c9.6,0.2,12.2-15.3,40.8-13.6C110.1,1.2,80.9,5.2,71.8,22.2C63,38.9,57,56.4,40.7,55.3
	c2.8,0.1,9.2-2.1,10.3-3.6c-15.6-14.9,5-22.5-0.5-44.9C42,17.9,28.1,17.6,33.2,33.6C21.6,20.4,11.3,34.1,0,31.5
	C8,48.3,26.5,33.3,33.5,55c7,26,20.7,38.8,36.3,43.4c-4.3-9.6-6-15.9,0.2-31.3c-1.7,5.6-2.4,10.5-2.3,14.5
	c-0.2,4.8,0.8,8.4,2.2,11.5c1.1,2.6,2.2,4.4,2.9,5.5c2.5,4.3,4.8,8.5,3.7,15.5c18.1-10.5,13.3-39.5,9.7-53.4
	c3.3,9.2,6.3,23.7,4.2,36.2c0.4-0.2,0.8-0.3,1.2-0.5c6.5-2.7,12.8-8.2,17-14.1c-0.1,0-3.4-5.4-3.7-12.6c0.2,2.1,0.8,4,1.6,5.9
	c0.8,2.5,1.7,4.3,2.3,5.2c2.1,4.3,4.3,9,5.2,15.4c17.9-16.9,5.8-32.4,3.8-46.7c0.2-0.7,0.3-1.4,0.5-2.1c3.2-12.6,7.4-18.1,9.4-20.3
	C95.1,25.4,96,40.5,83.3,39.5C83.3,39.6,82,40.8,80.8,40.8z"/>
<g>
	<g>
		<path fill="#FFFFFF" d="M20.7,171.8l-0.2,1.2h-0.1l-0.3-1.2l-1.7-5.1H17l-1.5,5.1l-0.2,1.2h-0.2l-0.2-1.2l-1.5-5.1H12l2.4,8.2h1.4
			l1.6-5.4l0.2-1.2h0.1l0.2,1.2l1.8,5.4h1.4l2.4-8.2h-1.3L20.7,171.8z M32.3,171.8l-0.2,1.2H32l-0.3-1.2l-1.7-5.1h-1.4l-1.5,5.1
			l-0.2,1.2h-0.2l-0.2-1.2l-1.5-5.1h-1.5l2.4,8.2h1.4l1.6-5.4l0.2-1.2h0.1l0.2,1.2l1.8,5.4h1.4l2.4-8.2h-1.3L32.3,171.8z
			 M43.9,171.8l-0.2,1.2h-0.1l-0.3-1.2l-1.7-5.1h-1.4l-1.5,5.1l-0.2,1.2h-0.2l-0.2-1.2l-1.5-5.1h-1.5l2.4,8.2H39l1.6-5.4l0.2-1.2
			h0.1l0.2,1.2l1.8,5.4h1.4l2.4-8.2h-1.3L43.9,171.8z M47.8,174.9h2V173h-2V174.9z M58.7,170.3c0,1.3-0.1,2.2-0.3,2.6
			c-0.2,0.4-0.5,0.7-0.9,0.9c-0.4,0.2-0.9,0.3-1.4,0.3c-0.6,0-1.1-0.1-1.5-0.3c-0.4-0.2-0.8-0.5-1-0.8c-0.2-0.4-0.3-1.1-0.3-2.2
			v-7.4h-1.5v7.6c0,1.3,0.2,2.2,0.5,2.7c0.3,0.5,0.8,0.9,1.5,1.2c0.7,0.3,1.4,0.4,2.3,0.4c0.9,0,1.6-0.2,2.2-0.5
			c0.6-0.3,1-0.7,1.4-1.3s0.5-1.5,0.5-2.8v-7.2h-1.4V170.3z M68,167.8v-1.1h-6.4v1.1h4.7l-4.8,6v1.1h6.7v-1.1h-4.9L68,167.8z
			 M75.3,166.8c-0.4-0.2-0.9-0.3-1.4-0.3c-0.4,0-0.7,0.1-1,0.2c-0.3,0.1-0.6,0.3-0.9,0.5c-0.3,0.2-0.6,0.5-0.9,1V163h-1.4v11.9h1.4
			v-4c0-0.8,0.1-1.4,0.3-1.8c0.2-0.4,0.5-0.8,0.9-1c0.4-0.2,0.8-0.4,1.2-0.4c0.4,0,0.7,0.1,1,0.3c0.3,0.2,0.5,0.4,0.6,0.7
			c0.1,0.3,0.1,0.8,0.1,1.6v4.7h1.4v-5.2c0-0.9-0.1-1.6-0.3-2C76.1,167.3,75.7,167,75.3,166.8z M83.8,170.7c0,0.8-0.1,1.4-0.3,1.8
			c-0.2,0.4-0.5,0.8-0.9,1c-0.4,0.2-0.8,0.4-1.2,0.4c-0.5,0-0.9-0.1-1.2-0.4c-0.3-0.3-0.5-1-0.5-2.2v-4.7h-1.4v5.2
			c0,1.3,0.3,2.2,0.8,2.6c0.5,0.4,1.2,0.6,2,0.6c0.4,0,0.7-0.1,1-0.2c0.3-0.1,0.6-0.3,0.9-0.5c0.3-0.2,0.6-0.6,0.9-1v1.4h1.4v-8.2
			h-1.4V170.7z M93.1,172.5v-3.2c0-0.9-0.1-1.5-0.3-1.8c-0.2-0.3-0.6-0.6-1.1-0.8c-0.5-0.2-1-0.3-1.6-0.3c-0.6,0-1.2,0.1-1.7,0.3
			c-0.5,0.2-0.9,0.5-1.2,0.9c-0.3,0.4-0.5,0.8-0.5,1.1v0.1h1.5v-0.1c0-0.3,0.2-0.6,0.5-0.9c0.3-0.2,0.7-0.4,1.3-0.4
			c0.5,0,0.9,0.1,1.2,0.3c0.3,0.2,0.5,0.6,0.5,1.1v0.9l-0.7,0.1c-1.6,0.3-2.7,0.7-3.4,1.1c-0.7,0.4-1,1-1,1.8c0,0.7,0.2,1.3,0.7,1.7
			c0.5,0.4,1,0.6,1.7,0.6c0.4,0,0.8-0.1,1.2-0.2c0.4-0.2,0.9-0.5,1.5-1.1c0,0.3,0.1,0.7,0.2,1.1h1.5c-0.2-0.5-0.2-1-0.3-1.3
			C93.1,173.2,93.1,172.8,93.1,172.5z M91.7,171.6c0,0.5-0.1,0.9-0.3,1.3c-0.2,0.4-0.5,0.7-0.8,0.9c-0.4,0.2-0.7,0.3-1.1,0.3
			c-0.2,0-0.4-0.1-0.7-0.2c-0.2-0.1-0.4-0.2-0.5-0.4c-0.1-0.2-0.2-0.4-0.2-0.6c0-0.4,0.2-0.8,0.6-1.1c0.4-0.3,1.3-0.6,2.6-1l0.4-0.1
			V171.6z M100.5,166.8c-0.4-0.2-0.9-0.3-1.4-0.3c-0.4,0-0.7,0.1-1,0.2c-0.3,0.1-0.6,0.3-0.9,0.5c-0.3,0.2-0.6,0.5-0.9,1v-1.4H95
			v8.2h1.4v-4c0-0.8,0.1-1.4,0.3-1.8c0.2-0.4,0.5-0.8,0.9-1c0.4-0.2,0.8-0.4,1.2-0.4c0.3,0,0.7,0.1,0.9,0.3c0.3,0.2,0.5,0.4,0.6,0.7
			c0.1,0.3,0.1,0.8,0.1,1.6v4.7h1.4v-5.2c0-0.9-0.1-1.6-0.3-2C101.3,167.3,101,167,100.5,166.8z M109.3,168c-0.4-0.6-0.8-1-1.3-1.2
			c-0.4-0.2-0.9-0.3-1.4-0.3c-0.7,0-1.3,0.2-1.8,0.5c-0.5,0.3-0.9,0.8-1.2,1.5c-0.3,0.7-0.4,1.4-0.4,2.3c0,1.3,0.3,2.3,1,3
			c0.6,0.8,1.5,1.2,2.5,1.2c0.6,0,1.2-0.1,1.6-0.4c0.5-0.3,0.8-0.7,1.1-1.3v1c0,1-0.1,1.7-0.3,2.1c-0.2,0.4-0.5,0.7-0.9,0.8
			c-0.4,0.2-0.8,0.3-1.3,0.3c-0.6,0-1.1-0.1-1.5-0.3c-0.4-0.2-0.6-0.5-0.6-0.9V176h-1.4v0.1c0,0.4,0.1,0.7,0.4,1.1
			c0.3,0.4,0.7,0.6,1.3,0.8c0.5,0.2,1.2,0.3,1.9,0.3c0.7,0,1.4-0.1,1.9-0.4c0.5-0.3,1-0.7,1.4-1.2c0.4-0.5,0.5-1.7,0.5-3.3v-6.7
			h-1.4V168z M108.7,172.9c-0.4,0.6-1,0.9-1.7,0.9c-0.4,0-0.8-0.1-1.2-0.4c-0.4-0.2-0.7-0.6-0.8-1.1c-0.2-0.5-0.3-1-0.3-1.7
			c0-1,0.2-1.8,0.7-2.3c0.4-0.6,1-0.8,1.7-0.8c0.6,0,1.2,0.3,1.7,0.8c0.5,0.5,0.7,1.3,0.7,2.1C109.3,171.5,109.1,172.3,108.7,172.9z
			 M112.8,174.9h2V173h-2V174.9z M121.9,166.7c-0.5-0.2-1-0.3-1.7-0.3c-1.2,0-2.2,0.4-2.9,1.2c-0.7,0.8-1,1.8-1,3.2
			c0,1.4,0.3,2.4,1,3.2c0.7,0.8,1.6,1.2,2.9,1.2c0.6,0,1.2-0.1,1.7-0.3c0.5-0.2,0.8-0.5,1.1-0.9c0.3-0.4,0.4-0.7,0.4-1.1v-0.1h-1.4
			v0.1c0,0.3-0.1,0.6-0.4,0.8c-0.3,0.2-0.7,0.3-1.3,0.3c-0.7,0-1.3-0.3-1.8-0.8c-0.5-0.5-0.7-1.3-0.7-2.4c0-1.1,0.2-1.9,0.7-2.4
			c0.5-0.5,1.1-0.8,1.8-0.8c0.6,0,1,0.1,1.3,0.3c0.3,0.2,0.4,0.5,0.4,0.8v0.1h1.4v-0.1c0-0.4-0.1-0.8-0.4-1.2
			C122.8,167.2,122.4,166.9,121.9,166.7z M128.3,166.4c-1.1,0-2,0.4-2.8,1.1c-0.8,0.7-1.2,1.8-1.2,3.3c0,1.4,0.4,2.5,1.2,3.3
			c0.8,0.7,1.7,1.1,2.8,1.1c1.1,0,2-0.4,2.8-1.1c0.8-0.7,1.2-1.8,1.2-3.3c0-1.4-0.4-2.5-1.2-3.3
			C130.3,166.8,129.4,166.4,128.3,166.4z M130.1,173.1c-0.5,0.6-1.1,0.9-1.8,0.9c-0.8,0-1.4-0.3-1.8-0.9c-0.5-0.6-0.7-1.4-0.7-2.3
			c0-1,0.2-1.7,0.7-2.3c0.5-0.6,1.1-0.9,1.8-0.9c0.8,0,1.4,0.3,1.8,0.9c0.5,0.6,0.7,1.4,0.7,2.3
			C130.8,171.8,130.6,172.5,130.1,173.1z M145,167.7c-0.2-0.4-0.5-0.7-0.9-0.9c-0.4-0.2-0.8-0.3-1.3-0.3c-0.3,0-0.6,0.1-0.9,0.2
			c-0.3,0.1-0.6,0.3-0.9,0.5c-0.3,0.2-0.6,0.6-0.8,1.1c-0.2-0.5-0.5-0.9-0.7-1.1c-0.2-0.2-0.5-0.4-0.8-0.5c-0.3-0.1-0.6-0.2-1-0.2
			c-0.3,0-0.7,0.1-1,0.2c-0.3,0.1-0.6,0.3-0.8,0.5c-0.3,0.2-0.5,0.6-0.8,1.1v-1.5h-1.4v8.2h1.4v-4c0-0.7,0.1-1.3,0.3-1.8
			c0.2-0.4,0.5-0.8,0.9-1c0.4-0.3,0.7-0.4,1.1-0.4c0.3,0,0.5,0.1,0.8,0.2c0.2,0.1,0.4,0.3,0.5,0.6c0.1,0.3,0.2,0.9,0.2,1.8v4.6h1.4
			v-4c0-0.8,0.1-1.4,0.3-1.8c0.2-0.4,0.5-0.8,0.8-1c0.4-0.3,0.7-0.4,1.2-0.4c0.3,0,0.5,0.1,0.8,0.2c0.2,0.1,0.4,0.3,0.5,0.6
			c0.1,0.3,0.2,0.9,0.2,1.8v4.6h1.4v-5.2C145.3,168.8,145.2,168.1,145,167.7z"/>
	</g>
</g>
<path fill="#FFFFFF" d="M40,132.8c0,1.1-0.9,2-2,2h-9.3v-6h-2.4v6h-6v2.4h6c-1.1,9.1-3.1,16.3-6,21.1l2,1.2
	c3.1-5.1,5.3-12.7,6.4-22.3h4v17.8c0,2.4,2,4.3,4.3,4.3h5.3v-2.3H37c-1.1,0-2-0.9-2-2v-17.8h3c2.4,0,4.4-2,4.4-4.3v-2.1H40V132.8z
	 M12.1,139.4l4.2-4.3v24.4h2.3v-30l-6.5,6.5V139.4z M96.9,146.3h-2.4v2.3H81.2v2.4h12.2c-2.5,4.1-6.9,5.8-12.2,6.4v2.4
	c6.6-0.7,11.9-2.9,14.7-8.3c2.7,5.3,7.8,7.5,14.1,8.3v-2.4c-5.1-0.7-9.3-2.4-11.7-6.4H110v-2.4H96.9V146.3z M96.8,134.5H110v-2.4
	h-5.8v-3.5h-2.4v3.5H89.9v-3.5h-2.4v3.5h-6.3v2.4h13.2v3.1H81.2v2.4h13.2v3.1H81.2v2.4H110v-2.4H96.8V140H110v-2.4H96.8V134.5z
	 M117.4,134.5c0-0.7,0.6-1.3,1.3-1.3h22c0.7,0,1.3,0.6,1.3,1.3v1.9h2.3v-1.9c0-2-1.6-3.6-3.6-3.6h-9.9v-2.3h-2.3v2.3h-9.9
	c-2,0-3.6,1.6-3.6,3.6v1.9h2.3V134.5z M144.4,141.3l-9.2,6.7l-3.8-3.6c-0.6-1.4-1.8-2.5-3.7-3.1c0.4-0.4,0.7-0.9,1-1.3h13.4v-2.3
	h-24.6v2.3h8.2c-2.4,2.5-6.5,4.5-10.6,5.6v2.4c3.7-0.9,7.6-2.6,10.4-4.8c1.1,0.2,2,0.5,2.6,1c-2.5,2.9-7.7,5.9-13,7.1v2.3
	c5.6-1.2,11.4-4.3,14.4-7.5c0.1,0.3,0.1,0.7,0.1,1v2.4c-2.4,2.8-8.5,5.5-14.5,6.6v2.3c5.4-1,11.2-3.2,14.5-5.8v2
	c0,1.9-1.4,3.1-3.2,3.1v2.3c3.1,0,5.5-2,5.5-5.4l0-6.4l12.4,11.8l0.1-0.1v-3l-7.6-7.2l7.6-5.5V141.3z M55.1,137.3H47v2.4h8.1v3h2.3
	v-14.2h-2.3v2.4H47v2.3h8.1V137.3z M62.7,143.4h-2.4v1.6H46.9v2.3h9.8c-2.7,2.6-5.8,4.7-9.8,6.5v2.6c1.8-0.8,3.7-1.7,5.2-2.6v1.6
	c0,2.4,2,4.3,4.3,4.3h2.9v-2.3h-2.9c-1.1,0-2-0.9-2-2v-3.1c2-1.4,3.8-3,5.5-4.9h16.8v-2.3H62.7V143.4z M69,128.5h-2.3v2.5h-7.9v2.3
	h7.9v6.8h-7.9v2.3h17.9v-2.3H69v-6.8h7.7v-2.3H69V128.5z M75.6,148.7h-3.3l-2.8,2.8l-3.6-2.8h-3.8l14.7,11.2V157l-5.4-4.1
	L75.6,148.7z"/>
</svg>
