<svg xmlns="http://www.w3.org/2000/svg" width="98.031" height="122.719" viewBox="0 0 98.031 122.719">
  <metadata><?xpacket begin="﻿" id="W5M0MpCehiHzreSzNTczkc9d"?>
<x:xmpmeta xmlns:x="adobe:ns:meta/" x:xmptk="Adobe XMP Core 5.6-c138 79.159824, 2016/09/14-01:09:01        ">
   <rdf:RDF xmlns:rdf="http://www.w3.org/1999/02/22-rdf-syntax-ns#">
      <rdf:Description rdf:about=""/>
   </rdf:RDF>
</x:xmpmeta>
                                                                                                    
                                                                                                    
                                                                                                    
                                                                                                    
                                                                                                    
                                                                                                    
                                                                                                    
                                                                                                    
                                                                                                    
                                                                                                    
                                                                                                    
                                                                                                    
                                                                                                    
                                                                                                    
                                                                                                    
                                                                                                    
                                                                                                    
                                                                                                    
                                                                                                    
                                                                                                    
                           
<?xpacket end="w"?></metadata>
<defs>
    <style>
      .cls-1 {
        fill: #2b3652;
        fill-rule: evenodd;
        opacity: 0.4;
      }
    </style>
  </defs>
  <path id="Bear" class="cls-1" d="M61,8s-2-4.469-3-5c0,0-1-.656-1,2h0s-0.094.656-1,0S52.531-.156,48,0c0,0-1.219-.156,0,2,0,0,.438,2.531,0,3s-4-1.469-6-1c0,0-.594-0.219,0,1s1.281,1.25,1,2-0.562.25-3,1-6.187.625-11,4c0,0-1.724,1.111-2,0C25.813,7.219,15.344,2.188,6,9c0,0-9.884,9-3,21a1.6,1.6,0,0,1,1,1c0.594,1,.344,4,2,3a6.375,6.375,0,0,1,2-1v2s0.438,1.156,3,0c0,0,2.469-.5,1,2,0,0-5.125,5-4,15L6,55s-1.844,1.125,2,4a3.237,3.237,0,0,1-1,2c-0.937.875-3.594,2.688-1,5s3,2,3,2a0.861,0.861,0,0,1,1,1c0.031,1.188,0,6,0,6s0.281,0.875,2,1,2.5-.312,4,1,10.375,5.75,18,6a1.33,1.33,0,0,1-1,2c-1.781.281-10.344,1.781-11,8,0,0-1.406,8,9,9h2s1.531,0.719,0,1-3.875,1.25-5,0-2.125-3.281-7-3-5.75,5.406-6,8,1.938,17.031,13,13a9.533,9.533,0,0,1,4-1c1.656,0.156,31.156,4.375,41,2,0,0,4.906-1.938,6-4,1.25-2.063,2.969-.719,3-1s2.531-.969,3-3,0.406-4.156-1-5-1-1.344-1-3-1.7-21.153-5.928-24.937L77,81a2.145,2.145,0,0,1,2-2c1.969-.281,7.031-2.969,9-5h4a0.863,0.863,0,0,0,1-1c-0.156-1.094,0-6,0-6a32.657,32.657,0,0,0,4,0,1.282,1.282,0,0,0,1-2c-0.437-.937-1.937-4.844-4-6a8.336,8.336,0,0,1,2-1c0.906-.25,3.625-0.75,2-3a9.143,9.143,0,0,0-4-3s0.375-14.125-4-19c0,0-.375-2.062,1-2s3,0,3,0l1-2h2V25s4.656-10.094-2-16S74,2.781,71,13C71,13,66.344,8.5,61,8Z" transform="translate(-0.563)"/>
</svg>
