<svg xmlns="http://www.w3.org/2000/svg" viewBox="0 0 88.79 42.38"><defs><style>.cls-1{fill:#394b77;}.cls-2{fill:#3f5a91;}.cls-3{fill:#ffc255;}.cls-4{fill:#ffef57;}.cls-5{fill:none;stroke:#3a3732;stroke-miterlimit:10;stroke-width:1.2px;}.cls-6{fill:#3a3732;}.cls-7{fill:#726654;opacity:0.17;}.cls-8{fill:#2f3759;}.cls-9{fill:#476093;}.cls-10{fill:#779bed;opacity:0.18;}</style></defs><title>资源 1           </title><g id="图层_2" data-name="图层 2"><g id="Door"><polygon class="cls-1" points="31.36 2.25 52.61 29.38 52.61 42.38 12.3 42.38 12.3 29.63 12.3 29 31.36 1.25 31.36 2.25"/><rect class="cls-2" x="52.61" y="29.38" width="33.06" height="13"/></g><g id="Gate"><polygon class="cls-3" points="33.8 6.5 33.8 42.38 18.86 42.38 18.86 41.13 31.23 3.69 33.8 6.5"/><polygon class="cls-4" points="33.8 42.38 33.8 14.17 28.16 42.38 33.8 42.38"/></g><g id="图层_6" data-name="图层 6"><line class="cls-5" x1="50.16" y1="29.92" x2="58.74" y2="41.75"/><polygon class="cls-6" points="2.9 42.38 12.25 29.51 11.28 28.81 2.9 40.33 2.9 42.38"/><path class="cls-6" d="M1.5,42.38V37.74H.7a.7.7,0,1,1,0-1.4H2.2a.7.7,0,0,1,.7.7v5.33Z"/><path class="cls-6" d="M59.69,42.38V37.74h.8a.7.7,0,1,0,0-1.4H59a.7.7,0,0,0-.7.7v5.33Z"/><polygon class="cls-7" points="11.76 29.16 2.9 41.3 2.9 42.38 12.25 29.51 11.76 29.16"/></g><g id="Roof_l"><path id="_1" data-name="1" class="cls-8" d="M29.86.81s-.78,0-1,.44S9.55,29.31,9.55,29.31s-.56,1.27.5,1.27h1.87s.34.1.37-1S31.36,2.25,31.36,2.25L29.86.81"/></g><g id="Roof_r"><path id="Main" class="cls-9" d="M30.24,0s-1.46.5,0,2.33S49.49,30.08,49.49,30.08a1.56,1.56,0,0,0,1.33.5H88.24s.75.08.5-1.33L68.57.42S68.82,0,67.41,0Z"/><path id="_1-2" data-name="1" class="cls-10" d="M30.64,2.87h0l.27.38h0l.3.42h38.2a1.51,1.51,0,0,0,1-.61L68.57.42S68.82,0,67.41,0H30.24s-1.46.5,0,2.33l.3.4Z"/><path id="_2" data-name="2" class="cls-10" d="M72.83,6.5h-1.9s-1,0-.5,1A33.42,33.42,0,0,0,73,11.13s2,1.25,2.67-.58Z"/><path id="_3" data-name="3" class="cls-10" d="M88.74,29.25,77.1,12.61a1.33,1.33,0,0,0-1.25-.17c-.79.34-1.51.81-1,1.75s9.55,13.35,11.77,16.4h1.61S89,30.67,88.74,29.25Z"/></g></g></svg>