<svg xmlns="http://www.w3.org/2000/svg" viewBox="0 0 45.44 134.19"><defs><style>.cls-1{fill:#24262d;}.cls-2,.cls-3{fill:#55617f;}.cls-2{opacity:0.19;}.cls-3{opacity:0.62;}</style></defs><title>资源 1           </title><g id="图层_2" data-name="图层 2"><g id="Tree3"><polygon id="_1" data-name="1" class="cls-1" points="22.94 0 20.44 3.69 20.44 6.38 17.38 14.88 17 19.88 20.25 18.28 20.25 20.91 10.13 34.31 12.31 38.75 20.17 36.3 20.17 37.58 3.06 54.81 0.94 65.88 20.2 59.99 20.17 62.19 0 74.25 3.56 83.56 20.38 78.56 20.38 134.19 22.94 134.19 22.94 78.31 41.19 84.75 45.44 76.69 22.72 62.81 22.72 60.38 36.81 64.88 40.88 58.13 22.56 39.4 22.58 36.14 31.75 39.44 30.81 32.56 22.72 23.25 22.72 17.56 25.63 18.44 26.88 14.88 22.72 9.38 22.94 0"/><polygon class="cls-2" points="26.88 14.88 22.72 9.38 22.94 0 21.06 2.77 21.06 16.19 25.89 17.67 26.88 14.88"/><polygon class="cls-2" points="25.48 37.18 31.75 39.44 30.81 32.56 22.72 23.25 21.06 20.56 19.69 31.31 25.48 37.18"/><polygon class="cls-2" points="29.11 62.41 36.81 64.88 40.88 58.13 22.56 39.4 22.57 38.69 21.69 37.81 19.06 54.56 22.72 53.31 29.11 62.41"/><polygon class="cls-2" points="45.44 76.69 23.44 63.26 21.06 61.94 22.72 72.31 32.73 79.19 34.45 82.37 41.19 84.75 45.44 76.69"/><polygon class="cls-3" points="24 26.84 28.72 33.84 30.75 32.5 24.59 25.41 24 26.84"/><polygon class="cls-3" points="27.66 46.31 37.66 59.91 40.85 58.1 27.6 44.55 27.66 46.31"/></g></g></svg>