<svg xmlns="http://www.w3.org/2000/svg" viewBox="0 0 29.17 52.96"><defs><style>.cls-1{fill:#1f2228;}.cls-2{fill:#313749;}</style></defs><title>资源 1           </title><g id="图层_2" data-name="图层 2"><g id="Tree1"><path class="cls-1" d="M20.33,34.42c.75.42,5.08,2.33,5.08,2.33L17.21,14.92c.63.42,2.63,1.5,2.63,1.5L14.58,0,9.33,16.42s2-1.08,2.63-1.5L3.75,36.75s4.33-1.92,5.08-2.33L0,53H29.17Z"/><path class="cls-2" d="M14.58,53H29.17L20.33,34.42c.75.42,5.08,2.33,5.08,2.33L17.21,14.92c.63.42,2.63,1.5,2.63,1.5L14.72.43l-2.23,14.2a1.87,1.87,0,0,0,1-.49l-4,20a18.73,18.73,0,0,0,2.65-1.22L9.18,53Z"/></g></g></svg>