{"asset":{"generator":"3D Builder","version":"2.0"},"scene":0,"scenes":[{"nodes":[0]}],"nodes":[{"children":[1,2,3,4,5]},{"mesh":0,"matrix":[0.99999994039535522,0,0,0,0,-1.1920928244535389E-7,-0.99999982118606567,0,0,0.99999982118606567,-1.1920928244535389E-7,0,0,0.10311130434274673,-1.2291827111710063E-8,1]},{"mesh":1,"matrix":[0.99999994039535522,0,0,0,0,-1.1920928244535389E-7,-0.99999982118606567,0,0,0.99999982118606567,-1.1920928244535389E-7,0,0,0.10311130434274673,-1.2291827111710063E-8,1]},{"mesh":2,"matrix":[0.99999994039535522,0,0,0,0,-1.1920928244535389E-7,-0.99999982118606567,0,0,0.99999982118606567,-1.1920928244535389E-7,0,0,0.10311130434274673,-1.2291827111710063E-8,1]},{"mesh":3,"matrix":[0.99999994039535522,0,0,0,0,-1.1920928244535389E-7,-0.99999982118606567,0,0,0.99999982118606567,-1.1920928244535389E-7,0,0,0.10311130434274673,-1.2291827111710063E-8,1]},{"mesh":4,"matrix":[0.99999994039535522,0,0,0,0,-1.1920928244535389E-7,-0.99999982118606567,0,0,0.99999982118606567,-1.1920928244535389E-7,0,0,0.10311130434274673,-1.2291827111710063E-8,1]}],"meshes":[{"primitives":[{"attributes":{"POSITION":0},"mode":4,"indices":1,"material":0}]},{"primitives":[{"attributes":{"POSITION":2},"mode":4,"indices":3,"material":0}]},{"primitives":[{"attributes":{"POSITION":4},"mode":4,"indices":5,"material":0}]},{"primitives":[{"attributes":{"POSITION":6},"mode":4,"indices":7,"material":0}]},{"primitives":[{"attributes":{"POSITION":8},"mode":4,"indices":9,"material":0}]}],"materials":[{"name":"default","pbrMetallicRoughness":{"baseColorFactor":[1,1,1,1],"metallicFactor":0,"roughnessFactor":1},"alphaMode":"OPAQUE"}],"accessors":[{"bufferView":0,"byteOffset":0,"count":680,"componentType":5126,"type":"VEC3","min":[-0.10311314463615417,-0.10311314463615417,-0.10311132669448853],"max":[0.10311132669448853,0.10539203882217407,0.10480237752199173]},{"bufferView":1,"byteOffset":0,"count":3264,"componentType":5125,"type":"SCALAR"},{"bufferView":2,"byteOffset":0,"count":68,"componentType":5126,"type":"VEC3","min":[-0.10284116864204407,-0.10179632157087326,-0.1028396338224411],"max":[-0.097158841788768768,-0.098203688859939575,-0.097160376608371735]},{"bufferView":3,"byteOffset":0,"count":198,"componentType":5125,"type":"SCALAR"},{"bufferView":4,"byteOffset":0,"count":68,"componentType":5126,"type":"VEC3","min":[0.097160376608371735,-0.10179632157087326,0.097158841788768768],"max":[0.1028396338224411,-0.098203688859939575,0.10284116864204407]},{"bufferView":5,"byteOffset":0,"count":198,"componentType":5125,"type":"SCALAR"},{"bufferView":6,"byteOffset":0,"count":68,"componentType":5126,"type":"VEC3","min":[0.0971590131521225,-0.10179594159126282,-0.10284023731946945],"max":[0.10284098982810974,-0.098204068839550018,-0.097159773111343384]},{"bufferView":7,"byteOffset":0,"count":198,"componentType":5125,"type":"SCALAR"},{"bufferView":8,"byteOffset":0,"count":68,"componentType":5126,"type":"VEC3","min":[-0.10000000149011612,-0.10311132669448853,0.09688868373632431],"max":[-0.10000000149011612,-0.09688868373632431,0.10311132669448853]},{"bufferView":9,"byteOffset":0,"count":198,"componentType":5125,"type":"SCALAR"}],"bufferViews":[{"buffer":0,"byteOffset":0,"byteLength":8160,"byteStride":12,"target":34962},{"buffer":0,"byteOffset":8160,"byteLength":13056,"target":34963},{"buffer":0,"byteOffset":21216,"byteLength":816,"byteStride":12,"target":34962},{"buffer":0,"byteOffset":22032,"byteLength":792,"target":34963},{"buffer":0,"byteOffset":22824,"byteLength":816,"byteStride":12,"target":34962},{"buffer":0,"byteOffset":23640,"byteLength":792,"target":34963},{"buffer":0,"byteOffset":24432,"byteLength":816,"byteStride":12,"target":34962},{"buffer":0,"byteOffset":25248,"byteLength":792,"target":34963},{"buffer":0,"byteOffset":26040,"byteLength":816,"byteStride":12,"target":34962},{"buffer":0,"byteOffset":26856,"byteLength":792,"target":34963}],"buffers":[{"byteLength":27648,"uri":"Corner-cube-0505-A.bin"}]}