{"asset":{"generator":"3D Builder","version":"2.0"},"scene":0,"scenes":[{"nodes":[0]}],"nodes":[{"children":[1,2]},{"mesh":0,"matrix":[0.039370074868202209,0,0,0,0,-4.6932786545994531E-9,-0.039370071142911911,0,0,0.039370071142911911,-4.6932786545994531E-9,0,0,0.015943638980388641,-1.9006300977508772E-9,1]},{"mesh":1,"matrix":[0.039370074868202209,0,0,0,0,-4.6932786545994531E-9,-0.039370071142911911,0,0,0.039370071142911911,-4.6932786545994531E-9,0,0,0.015943638980388641,-1.9006300977508772E-9,1]}],"meshes":[{"primitives":[{"attributes":{"POSITION":0},"mode":4,"indices":1,"material":0}]},{"primitives":[{"attributes":{"POSITION":2},"mode":4,"indices":3,"material":0}]}],"materials":[{"name":"default","pbrMetallicRoughness":{"baseColorFactor":[1,1,1,1],"metallicFactor":0,"roughnessFactor":1},"alphaMode":"OPAQUE"}],"accessors":[{"bufferView":0,"byteOffset":0,"count":9802,"componentType":5126,"type":"VEC3","min":[-0.40978631377220154,-1.8670036792755127,-0.4045620858669281],"max":[0.40997332334518433,2.1186625957489014,0.41489270329475403]},{"bufferView":1,"byteOffset":0,"count":58800,"componentType":5125,"type":"SCALAR"},{"bufferView":2,"byteOffset":0,"count":5518,"componentType":5126,"type":"VEC3","min":[-0.41029432415962219,-1.8670036792755127,-0.40496847033500671],"max":[0.41022726893424988,2.1186625957489014,0.41555312275886536]},{"bufferView":3,"byteOffset":0,"count":33096,"componentType":5125,"type":"SCALAR"}],"bufferViews":[{"buffer":0,"byteOffset":0,"byteLength":117624,"byteStride":12,"target":34962},{"buffer":0,"byteOffset":117624,"byteLength":235200,"target":34963},{"buffer":0,"byteOffset":352824,"byteLength":66216,"byteStride":12,"target":34962},{"buffer":0,"byteOffset":419040,"byteLength":132384,"target":34963}],"buffers":[{"byteLength":551424,"uri":"DNA-0429-D.bin"}]}